<svg xmlns="http://www.w3.org/2000/svg" width="338" height="462" viewBox="-220.276 -51.236 139.692 195.935" fill="#fff"><path d="M-107.266-48.66c3.298 5.812 10.2 23.203 10.62 29.957 1.476 8.482 3.592 33.762 3.575 39.114.42 4.14-1.908 20.758-2.598 25.156.533 5.026.368 33.76-.794 35.96-4.964-3.3-20.883-7.07-27.542-7.698-3.708-.314-15.707-2.604-18.596-1.976-1.195 1.728-8.236 3.384-9.936 3.08-.425-.076-3.065 14.174-1.058 14.505s25.974 1.193 27.555 1.934-17.108 5.016-24.844 4.796c-3.868-.1-26.286-3.4-25.43-4.692.428-.642 24.485-2.274 28.537-1.727s-4.555-14.666-4.874-14.8c-1.28-.497-8-1.727-8.714-3.242-2.406.202-7.403 1.048-10.045 1.35-1.497.1-5.047-.195-9.542 1.547-2.753 1.17-6.896 4.25-9.033 5.968-2.305 2.827-4.335 7.478-7.112 9.237-1.54 1.28-3.743-.05-4.922-7.888-.648-5.06.052-19.533-.26-24.66-.976-6.6-5.823-20.486-5.335-25.737.522-4.24 1.478-13.542.73-16.695-2.238-5.6-4.387-16.8-3.047-22.588-.06-5.812 2.847-19.087 6.397-25.84 1.633-3.927 6.34-10.308 7.22-12.193-2.137 1.1-8.322 4.72-10.426 6.763-2.45 2.67-10.298 12.7-10.298 22.35s-1.4 22.136 1.534 29.36c2.575 6.126 3.287 15.024 4 19.422 1.633 9.738 3.866 48.3 6.946 61.65 2.26 9.425 29.3 39.02 37.25 42.946 6.816 4.555 20.982 5.26 26.575 4.63 5.997-2.637 26.563-16.86 29.957-19.53 7.882-4.723 22.602-32.578 21.9-34.62.847-2.984 3.287-38.564 3.068-38.564.22 0 .384-22.2-1.45-28.047.522-4.04 3.793-10.895 4.584-15.44-.185-5.856-3.592-22.998-5.325-27.946-1.8-4.342-6.686-14.595-10.046-19.62-3.08-3.455-7.826-5.45-9.24-6.234zm-55.27 72.412c-4.122-4.302-10.512-8.63-20.485-7.54s-16.147 6.037-17.46 11.6.37 4.915 1.38 5.924 7.56-3.876 9.428-5.262 6.126-4.952 10.43-5.62 12.106.828 16.66.996m19.994-3.132c2.808-4.093 8.776-8.634 16.96-9.23s16.35 1.792 17.067 3.316-1.945 5.466-4.992 5.02-8.065-2.42-12.367-1.972c-7-.717-6.8 1.434-16.67 2.868z"/></svg>
