<?xml version="1.0" encoding="utf-8"?>
<svg width="338" height="462" viewBox="0 0 140 200" fill="#fff" xmlns="http://www.w3.org/2000/svg">
  <path d="M 113.118 5.056 C 116.416 10.868 123.318 28.259 123.738 35.013 C 125.214 43.495 127.33 68.775 127.313 74.127 C 127.733 78.267 125.405 94.885 124.715 99.283 C 125.248 104.309 125.083 133.043 123.921 135.243 C 118.957 131.943 103.038 128.173 96.379 127.545 C 92.671 127.231 80.672 124.941 77.783 125.569 C 76.588 127.297 69.547 128.953 67.847 128.649 C 67.422 128.573 64.782 142.823 66.789 143.154 C 68.796 143.485 92.763 144.347 94.344 145.088 C 95.925 145.829 77.236 150.104 69.5 149.884 C 65.632 149.784 43.214 146.484 44.07 145.192 C 44.498 144.55 68.555 142.918 72.607 143.465 C 76.659 144.012 68.052 128.799 67.733 128.665 C 66.453 128.168 59.733 126.938 59.019 125.423 C 56.613 125.625 51.616 126.471 48.974 126.773 C 47.477 126.873 43.927 126.578 39.432 128.32 C 36.679 129.49 32.536 132.57 30.399 134.288 C 28.094 137.115 26.064 141.766 23.287 143.525 C 21.747 144.805 19.544 143.475 18.365 135.637 C 17.717 130.577 18.417 116.104 18.105 110.977 C 17.129 104.377 12.282 90.491 12.77 85.24 C 13.292 81 14.248 71.698 13.5 68.545 C 11.262 62.945 9.113 51.745 10.453 45.957 C 10.393 40.145 13.3 26.87 16.85 20.117 C 18.483 16.19 23.19 9.809 24.07 7.924 C 21.933 9.024 15.748 12.644 13.644 14.687 C 11.194 17.357 3.346 27.387 3.346 37.037 C 3.346 46.687 1.946 59.173 4.88 66.397 C 7.455 72.523 8.167 81.421 8.88 85.819 C 10.513 95.557 12.746 134.119 15.826 147.469 C 18.086 156.894 45.126 186.489 53.076 190.415 C 59.892 194.97 74.058 195.675 79.651 195.045 C 85.648 192.408 106.214 178.185 109.608 175.515 C 117.49 170.792 132.21 142.937 131.508 140.895 C 132.355 137.911 134.795 102.331 134.576 102.331 C 134.796 102.331 134.96 80.131 133.126 74.284 C 133.648 70.244 136.919 63.389 137.71 58.844 C 137.525 52.988 134.118 35.846 132.385 30.898 C 130.585 26.556 125.699 16.303 122.339 11.278 C 119.259 7.823 114.513 5.828 113.099 5.044 Z M 57.848 77.468 C 53.726 73.166 47.336 68.838 37.363 69.928 C 27.39 71.018 21.216 75.965 19.903 81.528 C 18.59 87.091 20.273 86.443 21.283 87.452 C 22.293 88.461 28.843 83.576 30.711 82.19 C 32.579 80.804 36.837 77.238 41.141 76.57 C 45.445 75.902 53.247 77.398 57.801 77.566 M 77.795 74.434 C 80.603 70.341 86.571 65.8 94.755 65.204 C 102.939 64.608 111.105 66.996 111.822 68.52 C 112.539 70.044 109.877 73.986 106.83 73.54 C 103.783 73.094 98.765 71.12 94.463 71.568 C 87.463 70.851 87.663 73.002 77.793 74.436 Z"/>
</svg>